<?xml version="1.0" encoding="UTF-8" standalone="no"?>
<!-- Created with Inkscape (http://www.inkscape.org/) -->

<svg
   version="1.1"
   id="svg2"
   xml:space="preserve"
   width="180"
   height="180"
   viewBox="0 0 180.00001 180"
   sodipodi:docname="flight-route-planner.svg"
   inkscape:version="1.1.2 (0a00cf5339, 2022-02-04)"
   inkscape:export-filename="/home/russcher/repositories/politie-gitlab/generator-mavlink-plan/flight-route-planner.png"
   inkscape:export-xdpi="100"
   inkscape:export-ydpi="100"
   xmlns:inkscape="http://www.inkscape.org/namespaces/inkscape"
   xmlns:sodipodi="http://sodipodi.sourceforge.net/DTD/sodipodi-0.dtd"
   xmlns="http://www.w3.org/2000/svg"
   xmlns:svg="http://www.w3.org/2000/svg"><defs
     id="defs6"><clipPath
       clipPathUnits="userSpaceOnUse"
       id="clipPath74"><path
         d="M 0,1984 H 1312 V 0 H 0 Z"
         id="path72" /></clipPath><clipPath
       clipPathUnits="userSpaceOnUse"
       id="clipPath422"><path
         d="m 51.0795,1158 h 57.8415 v -17.49 H 51.0795 Z"
         id="path420" /></clipPath><clipPath
       clipPathUnits="userSpaceOnUse"
       id="clipPath438"><path
         d="m 58.2086,1148 h 43.5824 v -14.65 H 58.2086 Z"
         id="path436" /></clipPath><clipPath
       clipPathUnits="userSpaceOnUse"
       id="clipPath454"><path
         d="m 65.4131,1138 h 29.1738 v -11.96 H 65.4131 Z"
         id="path452" /></clipPath><clipPath
       clipPathUnits="userSpaceOnUse"
       id="clipPath470"><path
         d="m 73,1128 h 14 v -14 H 73 Z"
         id="path468" /></clipPath></defs><sodipodi:namedview
     id="namedview4"
     pagecolor="#ffffff"
     bordercolor="#666666"
     borderopacity="1.0"
     inkscape:pageshadow="2"
     inkscape:pageopacity="0.0"
     inkscape:pagecheckerboard="0"
     showgrid="false"
     inkscape:zoom="3.6203867"
     inkscape:cx="133.13495"
     inkscape:cy="111.7284"
     inkscape:window-width="1920"
     inkscape:window-height="1080"
     inkscape:window-x="3840"
     inkscape:window-y="-37"
     inkscape:window-maximized="1"
     inkscape:current-layer="g8" /><g
     id="g8"
     inkscape:groupmode="layer"
     inkscape:label="AA overzicht-150-iconen"
     transform="matrix(1.3333333,0,0,-1.3333333,0,2645.3333)"><rect
       style="opacity:1;fill:#ffffff;fill-opacity:1;stroke:#ffffff;stroke-width:0.56693;stroke-linejoin:bevel"
       id="rect870"
       width="134.43307"
       height="134.43307"
       x="0.28346422"
       y="-1983.7166"
       transform="scale(1,-1)"
       ry="28.979755"
       rx="0" /><g
       id="g4675"
       transform="translate(1.4128167,-11.693422)"><g
         id="g94"
         transform="translate(31.774747,1898.6129)"><path
           d="M 0,0 C -3.038,0 -5.5,2.462 -5.5,5.5 -5.5,8.538 -3.038,11 0,11 3.038,11 5.5,8.538 5.5,5.5 5.5,2.462 3.038,0 0,0 m 10.803,11.769 3.869,5.222 -3.182,3.181 -5.221,-3.869 C 5.31,16.86 4.271,17.29 3.172,17.578 L 2.2,24 h -4.4 l -0.972,-6.422 c -1.111,-0.291 -2.16,-0.727 -3.127,-1.294 l -5.227,3.853 -3.111,-3.111 3.853,-5.227 c -0.567,-0.967 -1.003,-2.016 -1.294,-3.127 L -18.5,7.7 V 3.3 l 6.422,-0.972 c 0.291,-1.11 0.727,-2.16 1.294,-3.127 l -3.853,-5.227 3.111,-3.111 5.227,3.853 c 0.958,-0.561 1.995,-0.994 3.093,-1.285 L -2.25,-13 h 4.5 l 0.956,6.431 c 1.086,0.288 2.114,0.715 3.063,1.267 l 5.221,-3.87 3.182,3.182 -3.869,5.221 c 0.551,0.949 0.978,1.977 1.266,3.063 L 18.5,3.25 v 4.5 l -6.431,0.956 c -0.288,1.086 -0.715,2.114 -1.266,3.063"
           style="fill:#004682;fill-opacity:1;fill-rule:nonzero;stroke:none"
           id="path96" /></g><g
         id="g4393"
         transform="translate(-438.12055,762.56569)"><g
           id="g4382"><g
             id="g854"
             transform="translate(488.8953,1198.6282)"><path
               d="m 0,0 -11.172,0.67 c -1.178,2.6 -3.789,4.41 -6.828,4.41 -3.039,0 -5.65,-1.81 -6.828,-4.41 L -36,0 v 2.08 h -7 v -3.91 c 0,-1.209 0.866,-2.246 2.057,-2.46 l 10.068,-1.813 C -33.331,-11.407 -37,-21.134 -37,-31.92 h 4 c 0,10.625 3.97,20.4 6.217,25.081 L -24.535,-7.244 -24,-9.92 h 12 l 0.535,2.676 2.251,0.406 C -6.967,-11.512 -3,-21.271 -3,-31.92 h 4 c 0,10.786 -3.669,20.513 -6.125,25.817 L 4.943,-4.29 C 6.134,-4.076 7,-3.039 7,-1.83 V 2.08 H 0 Z"
               style="fill:#004682;fill-opacity:1;fill-rule:nonzero;stroke:none"
               id="path856" /></g><g
             id="g842"
             transform="translate(447.8953,1202.7083)"><path
               d="M 0,0 H 3 V 2.134 C 4.469,1.538 7.231,0.618 9,1.273 10,1.645 10.68,2.313 11.136,2.98 12.903,5.566 7.552,4.738 2.982,4.174 2.896,4.919 2.269,5.5 1.5,5.5 0.731,5.5 0.104,4.919 0.018,4.174 -4.552,4.738 -9.903,5.566 -8.136,2.98 -7.68,2.313 -7,1.645 -6,1.273 -4.231,0.618 -1.469,1.538 0,2.134 Z"
               style="fill:#004682;fill-opacity:1;fill-rule:nonzero;stroke:none"
               id="path844" /></g><g
             id="g846"
             transform="translate(470.8953,1176.2083)"><path
               d="M 0,0 C -1.933,0 -3.5,1.567 -3.5,3.5 -3.5,5.434 -1.933,7 0,7 1.933,7 3.5,5.434 3.5,3.5 3.5,1.567 1.933,0 0,0 M 6,10.5 H -6 c -1.657,0 -3,-1.343 -3,-3 v -8 c 0,-1.656 1.343,-3 3,-3 H 6 c 1.657,0 3,1.344 3,3 v 8 c 0,1.657 -1.343,3 -3,3"
               style="fill:#004682;fill-opacity:1;fill-rule:nonzero;stroke:none"
               id="path848" /></g></g><g
           id="g850"
           transform="translate(493.8777,1206.8821)"><path
             d="m 0,0 c -0.087,0.745 -0.713,1.326 -1.482,1.326 -0.769,0 -1.396,-0.581 -1.483,-1.326 -4.569,0.564 -9.92,1.393 -8.154,-1.193 0.456,-0.668 1.137,-1.336 2.137,-1.707 1.768,-0.656 4.53,0.264 6,0.86 v -2.134 h 3 v 2.134 c 1.469,-0.596 4.231,-1.516 6,-0.86 1,0.371 1.68,1.039 2.135,1.707 C 9.92,1.393 4.569,0.564 0,0"
             style="fill:#004682;fill-opacity:1;fill-rule:nonzero;stroke:none"
             id="path852" /></g></g><g
         id="g1062"
         transform="matrix(1.4924381,0,0,1.4924381,116.71829,1957.4542)"
         style="stroke-width:0.670045"><path
           d="m 0,0 c 0.818,-1.065 1.465,-2.265 1.892,-3.568 l 3.598,1.311 v -30.615 l -13.954,-5.083 -16.006,6.631 -14.04,-5.202 v 9.734 l 13.959,5.172 11.59,-4.802 c -0.841,1.482 -1.924,3.424 -3.102,5.615 l -8.407,3.483 -14.04,-5.202 V -5.92 l 13.959,5.171 4.075,-1.688 c 0.56,1.26 1.331,2.403 2.268,3.391 l -6.262,2.593 -18.04,-6.683 v -39.138 l 17.959,6.654 15.994,-6.626 18.047,6.574 V 3.457 Z"
           style="fill:#004682;fill-opacity:1;fill-rule:nonzero;stroke:none;stroke-width:0.670045"
           id="path1064" /></g><g
         id="g1066"
         transform="matrix(1.4924381,0,0,1.4924381,102.52476,1952.2817)"
         style="stroke-width:0.670045"><path
           d="m 0,0 c 2.112,0 3.824,-1.712 3.824,-3.823 0,-2.112 -1.712,-3.824 -3.824,-3.824 -2.112,0 -3.824,1.712 -3.824,3.824 C -3.824,-1.712 -2.112,0 0,0 M -8.938,-8.313 C -4.861,-16.74 0,-24.935 0,-24.935 c 0,0 4.861,8.195 8.938,16.622 0.658,1.361 1.062,2.875 1.062,4.49 0,5.522 -4.477,10 -10,10 -5.523,0 -10,-4.478 -10,-10 0,-1.615 0.404,-3.129 1.062,-4.49"
           style="fill:#004682;fill-opacity:1;fill-rule:nonzero;stroke:none;stroke-width:0.670045"
           id="path1068" /></g></g></g></svg>
